# xmcd
#
# Track frame offsets:
#	150
#	13933
#	27454
#	37453
#	48856
#	57010
#	66710
#	75240
#	85846
#	101287
#	116878
#	131586
#	141248
#	155229
#	168093
#	188654
#	198216
#	212324
#	225601
#	237886
#	248745
#
# Disc length: 3484 seconds
#
# Revision: 1
# Processed by: cddbd v1.5.2PL0 Copyright (c) Steve Scherf et al.
# Submitted via: EZCDAudioConverter 1.3.4.1
#
DISCID=1d0d9a15
DTITLE=Animated Egg - Guitar Freakout
DYEAR=2008
DGENRE=
TTITLE0=Animated Egg - A Love Built On Sand
TTITLE1=Animated Egg - Inside Looking Out
TTITLE2=Animated Egg - I Said, She Said, Ah Cid
TTITLE3=Animated Egg - ''T''omorrow
TTITLE4=Animated Egg - Sure Listic
TTITLE5=Animated Egg - Sippin' And Trippin'
TTITLE6=Animated Egg - Dark
TTITLE7=Animated Egg - Down, Down And Gone
TTITLE8=Animated Egg - Sock It My Way
TTITLE9=Animated Egg - That's How It Is
TTITLE10=Generation Gap - Fool's Luck
TTITLE11=T. Swift and The Electric Bag - What's Your Bag?
TTITLE12=Projection Company - Boil The Kettle
TTITLE13=Stone Canyon Rock Group - Light Show
TTITLE14=T. Swift and The Electric Bag - Expo In Sound
TTITLE15=T. Swift and The Electric Bag - Free Form In 6
TTITLE16=Projection Company - Our Man Hendrix
TTITLE17=T. Swift and The Electric Bag - Red Eyes
TTITLE18=Generation Gap - Hard Times
TTITLE19=Projection Company - Tune Out Of Place
TTITLE20=Projection Company - Kimeaa
EXTD=
EXTT0=
EXTT1=
EXTT2=
EXTT3=
EXTT4=
EXTT5=
EXTT6=
EXTT7=
EXTT8=
EXTT9=
EXTT10=
EXTT11=
EXTT12=
EXTT13=
EXTT14=
EXTT15=
EXTT16=
EXTT17=
EXTT18=
EXTT19=
EXTT20=
PLAYORDER=
